<svg width="24" height="24" viewBox="0 0 24 24" fill="none" xmlns="http://www.w3.org/2000/svg">
<path d="M22.2889 11.9527C22.2889 11.9504 22.2865 11.9504 22.2865 11.948L22.2443 11.8988C22.242 11.8964 22.2397 11.8918 22.235 11.8894C22.2186 11.8707 22.1998 11.8519 22.1834 11.8332L13.1271 2.78395L12.5201 2.17691C12.3818 2.03952 12.1948 1.9624 11.9998 1.9624C11.8048 1.9624 11.6178 2.03952 11.4795 2.17691L1.81621 11.8355C1.64164 12.0092 1.5128 12.2233 1.44121 12.4589L1.42715 12.5082L1.42012 12.5339L1.41309 12.5621C1.4084 12.5785 1.40605 12.5949 1.40371 12.6113C1.40371 12.6136 1.40371 12.6183 1.40137 12.6207C1.3873 12.691 1.38027 12.7613 1.37793 12.8339V12.9113C1.37793 12.923 1.37793 12.9347 1.38027 12.9464C1.38027 12.9582 1.38027 12.9675 1.38262 12.9793C1.38262 12.991 1.38496 13.0027 1.38496 13.0144C1.38496 13.0285 1.3873 13.0425 1.38965 13.0566C1.38965 13.0636 1.39199 13.0707 1.39199 13.0777L1.39902 13.1363V13.1386C1.51855 13.8535 2.15371 14.3925 2.89902 14.3925H3.89512V21.0308C3.89512 21.5831 4.34283 22.0308 4.89512 22.0308H19.1068C19.6591 22.0308 20.1068 21.5831 20.1068 21.0308V14.3972H21.124C21.3256 14.3972 21.5201 14.3574 21.6982 14.2824C21.8764 14.2074 22.0428 14.0972 22.1857 13.9566C22.3254 13.8174 22.436 13.6519 22.5113 13.4697C22.5865 13.2874 22.6248 13.092 22.624 12.8949C22.624 12.5504 22.5068 12.2199 22.2889 11.9527ZM13.3123 20.3433H10.6873V15.5621H13.3123V20.3433ZM18.4193 12.7097V20.3433H14.8123V14.9996C14.8123 14.4816 14.3928 14.0621 13.8748 14.0621H10.1248C9.60684 14.0621 9.1873 14.4816 9.1873 14.9996V20.3433H5.58027V12.7097H3.33027L12.0021 4.04488L12.5436 4.58629L20.6717 12.7097H18.4193Z" fill="#A7A7A7"/>
</svg>
